# AST/ASF file generated using VICON BodyLanguage
# -----------------------------------------------
:version 1.10
:name VICON
:units
  mass 1.0
  length 0.45
  angle deg
:documentation
   .ast/.asf automatically generated from VICON data using
   VICON BodyBuilder and BodyLanguage model FoxedUp or BRILLIANT.MOD
:root
   order TX TY TZ RX RY RZ
   axis XYZ
   position 0 0 0  
   orientation 0 0 0 
:bonedata
  begin
     id 1 
     name lhipjoint
     direction 0.707368 -0.647095 0.284426 
     length 2.60678 
     axis 0 0 0  XYZ
  end
  begin
     id 2 
     name lfemur
     direction 0.34202 -0.939693 0  
     length 6.63812  
     axis 0 0 20  XYZ
    dof rx ry rz
    limits (-160.0 20.0)
           (-70.0 70.0)
           (-60.0 70.0)
  end
  begin
     id 3 
     name ltibia
     direction 0.34202 -0.939693 0   
     length 7.51178   
     axis 0 0 20   XYZ
    dof rx
    limits (-10.0 170.0)
  end
  begin
     id 4 
     name lfoot
     direction 0.121251 -0.333133 0.935051   
     length 1.83716   
     axis -90 7.62852e-016 20   XYZ
    dof rx rz
    limits (-45.0 90.0)
           (-70.0 20.0)
  end
  begin
     id 5 
     name ltoes
     direction 1.53611e-011 -4.21962e-011 1   
     length 0.916133   
     axis -90 7.62852e-016 20   XYZ
    dof rx
    limits (-90.0 20.0)
  end
  begin
     id 6 
     name rhipjoint
     direction -0.692419 -0.660507 0.290321   
     length 2.55385  
     axis 0 0 0  XYZ 
  end
  begin
     id 7 
     name rfemur
     direction -0.34202 -0.939693 0   
     length 7.29079   
     axis 0 0 -20   XYZ
    dof rx ry rz
    limits (-160.0 20.0)
           (-70.0 70.0)
           (-70.0 60.0)
  end
  begin
     id 8 
     name rtibia
     direction -0.34202 -0.939693 0   
     length 7.47143   
     axis 0 0 -20   XYZ
    dof rx
    limits (-10.0 170.0)
 end
 begin
     id 9 
     name rfoot
     direction -0.119907 -0.329441 0.936532   
     length 1.79439  
     axis -90 -7.62852e-016 -20   XYZ
    dof rx rz
    limits (-45.0 90.0)
           (-20.0 70.0)
  end
  begin
     id 10 
     name rtoes
     direction -1.53571e-011 -4.21961e-011 1   
     length 0.896039   
     axis -90 -7.62852e-016 -20   XYZ
    dof rx
    limits (-90.0 20.0)
  end
  begin
     id 11 
     name lowerback
     direction 0.0367721 0.992912 -0.113016   
     length 1.73542   
     axis 0 0 0   XYZ
    dof rx ry rz
    limits (-20.0 45.0)
           (-30.0 30.0)
           (-30.0 30.0)
  end
  begin
     id 12 
     name upperback
     direction -0.000314626 0.990678 0.136227   
     length 1.7514   
     axis 0 0 0   XYZ
    dof rx ry rz
    limits (-20.0 45.0)
           (-30.0 30.0)
           (-30.0 30.0)
  end
  begin
     id 13 
     name thorax
     direction -0.0226159 0.981151 0.191917   
     length 1.71471   
     axis 0 0 0   XYZ
    dof rx ry rz
    limits (-20.0 45.0)
           (-30.0 30.0)
           (-30.0 30.0)
  end
  begin
     id 14 
     name lowerneck
     direction 0.0219333 0.998071 0.0580739   
     length 1.65882   
     axis 0 0 0   XYZ
    dof rx ry rz
    limits (-20.0 45.0)
           (-30.0 30.0)
           (-30.0 30.0)
  end
  begin
     id 15 
     name upperneck
     direction 0.0384529 0.980058 -0.194957   
     length 1.6612   
     axis 0 0 0   XYZ
    dof rx ry rz
    limits (-20.0 45.0)
           (-30.0 30.0)
           (-30.0 30.0)
  end
  begin
     id 16
     name head
     direction 0.00592123 0.997421 -0.0715234  
     length 1.68077  
     axis 0 0 0   XYZ
    dof rx ry rz
    limits (-20.0 45.0)
           (-30.0 30.0)
           (-30.0 30.0)
  end
  begin
     id 17 
     name lclavicle
     direction 0.904803 0.417826 0.0821728  
     length 3.42227  
     axis 0 0 0   XYZ
    dof ry rz
    limits (-20.0 10.0)
           (0.0 20.0)
  end
  begin
     id 18 
     name lhumerus
     direction 1 -4.48965e-011 -2.68786e-027   
     length 5.11878   
     axis -180 -30 -90   XYZ
    dof rx ry rz
    limits (-60.0 90.0)
           (-90.0 90.0)
           (-90.0 90.0)
  end
  begin
     id 19
     name lradius
     direction 1 -4.48965e-011 2.61168e-028   
     length 3.59971   
     axis -180 -30 -90   XYZ
    dof rx
    limits (-10.0 170.0)
  end
  begin
     id 20
     name lwrist
     direction 1 -4.48965e-011 1.58672e-027   
     length 1.79985   
     axis -1.65735e-015 90 90   XYZ
    dof ry
    limits (-180.0 0.0)
 end
  begin
     id 21 
     name lhand
     direction 1 -4.48942e-011 3.17344e-027   
     length 0.62877   
     axis -2.02492e-015 90 90   XYZ
    dof rx rz
    limits (-90.0 90.0)
           (-45.0 45.0)
  end
  begin
     id 22 
     name lfingers
     direction 1 -4.49011e-011 6.34687e-027   
     length 0.506931   
     axis -4.04985e-015 90 90   XYZ
    dof rx
    limits (0.0 90.0)
  end
  begin
     id 23
     name lthumb
     direction 0.707107 -6.34982e-011 0.707107   
     length 0.727854   
     axis -90 45 2.85299e-015   XYZ
    dof rx rz
    limits (-45.0 45.0)
           (-45.0 45.0)
  end
  begin
     id 24 
     name rclavicle
     direction -0.945647 0.32488 0.0143075   
     length 3.52737  
     axis 0 0 0   XYZ 
    dof ry rz
    limits (-10.0 20.0)
           (-20.0 0.0)
  end
  begin
     id 25 
     name rhumerus
     direction -1 -4.48962e-011 1.92182e-027  
     length 5.4902   
     axis -180 30 90   XYZ
    dof rx ry rz
    limits (-90.0 60.0)
           (-90.0 90.0)
           (-90.0 90.0)
  end
  begin
     id 26 
     name rradius
     direction -1 -4.48967e-011 -5.97193e-028   
     length 3.20659   
     axis -180 30 90   XYZ
    dof rx
    limits (-10.0 170.0)
  end
  begin
     id 27 
     name rwrist
     direction -1 -4.48964e-011 1.58672e-027   
     length 1.6033   
     axis -1.65735e-015 -90 -90   XYZ
    dof ry
    limits (-180.0 0.0)
  end
  begin
     id 28
     name rhand
     direction -1 -4.49006e-011 3.17344e-027   
     length 0.691885   
     axis -2.02492e-015 -90 -90   XYZ
    dof rx rz
    limits (-90.0 90.0)
           (-45.0 45.0)
  end
  begin
     id 29
     name rfingers
     direction -1 -4.48908e-011 6.34687e-027   
     length 0.557815   
     axis -4.04985e-015 -90 -90   XYZ
    dof rx
    limits (0.0 90.0)
  end
  begin
     id 30
     name rthumb
     direction -0.707107 -6.34999e-011 0.707107   
     length 0.800915   
     axis -90 -45 -2.85299e-015   XYZ
    dof rx rz
    limits (-45.0 45.0)
           (-45.0 45.0)
  end
:hierarchy
  begin
    root lhipjoint rhipjoint lowerback
    lhipjoint lfemur
    lfemur ltibia
    ltibia lfoot
    lfoot ltoes
    rhipjoint rfemur
    rfemur rtibia
    rtibia rfoot
    rfoot rtoes
    lowerback upperback
    upperback thorax
    thorax lowerneck lclavicle rclavicle
    lowerneck upperneck
    upperneck head
    lclavicle lhumerus
    lhumerus lradius
    lradius lwrist
    lwrist lhand lthumb
    lhand lfingers
    rclavicle rhumerus
    rhumerus rradius
    rradius rwrist
    rwrist rhand rthumb
    rhand rfingers
  end

#!OML:ASF I:\Actors\actors\Patient Classification 1\Patient 1\Session 1\Subject1.ASF
:FULLY-SPECIFIED
:DEGREES
58
root -0.385191 17.4753 7.34556 5.55777 -0.092978 -7.59566
lowerback 1.21465 1.45098 5.56671
upperback -8.72981 2.39253 0.823834
thorax -9.76609 0.767544 -2.45619
lowerneck -2.29553 -12.4587 -10.5371
upperneck 20.5673 -18.5492 9.98473
head 8.71593 -8.9072 3.25256
rclavicle -2.18663e-015 3.29983e-014
rhumerus -41.7394 -16.1172 -81.5264
rradius 22.7829
rwrist 40.773
rhand 2.14485 -33.4759
rfingers 7.12502
rthumb 27.6431 -61.465
lclavicle -2.18663e-015 3.29983e-014
lhumerus -41.5891 3.5487 86.7971
lradius 21.9015
lwrist -22.5826
lhand -14.7995 -11.7495
lfingers 7.12502
lthumb 11.3581 17.9229
rfemur 1.0245 24.3267 26.7772
rtibia 1.58618
rfoot -12.2425 -22.9181
rtoes 3.79603
lfemur 8.5932 -39.9529 -16.1346
ltibia -4.55324
lfoot -12.8284 45.2113
ltoes 2.6055
59
root -0.385924 17.475 7.34593 5.55922 -0.0790858 -7.61605
lowerback 1.24265 1.44952 5.60644
upperback -8.73972 2.39551 0.821331
thorax -9.79282 0.764676 -2.48227
lowerneck -2.27135 -12.4827 -10.5661
upperneck 20.5432 -18.5838 10.001
head 8.71205 -8.92582 3.25916
rclavicle 2.3556e-014 -1.27222e-014
rhumerus -41.7527 -16.0961 -81.5555
rradius 22.823
rwrist 40.7775
rhand 2.21971 -33.5099
rfingers 7.12502
rthumb 27.7147 -61.4875
lclavicle 2.3556e-014 -1.27222e-014
lhumerus -41.5994 3.50131 86.8255
lradius 21.859
lwrist -22.3954
lhand -15.0694 -11.8284
lfingers 7.12502
lthumb 11.0978 17.8582
rfemur 1.0304 24.3218 26.8057
rtibia 1.5706
rfoot -12.2234 -22.9407
rtoes 3.6995
lfemur 8.55463 -39.8676 -16.0627
ltibia -4.5554
lfoot -12.8079 45.1106
ltoes 2.64318
60
root -0.386786 17.4748 7.34637 5.55015 -0.0701056 -7.65884
lowerback 1.29172 1.46011 5.66528
upperback -8.75103 2.41882 0.832474
thorax -9.83223 0.770451 -2.50698
lowerneck -2.21493 -12.4932 -10.5954
upperneck 20.5034 -18.6006 10.0216
head 8.69533 -8.93735 3.27222
rclavicle 5.1684e-015 1.27222e-014
rhumerus -41.7835 -16.1023 -81.5313
rradius 22.8661
rwrist 40.8114
rhand 2.29705 -33.5691
rfingers 7.12502
rthumb 27.7886 -61.5348
lclavicle 5.1684e-015 1.27222e-014
lhumerus -41.6278 3.4141 86.8899
lradius 21.874
lwrist -22.3368
lhand -15.1972 -11.8095
lfingers 7.12502
lthumb 10.9745 17.8836
rfemur 1.04957 24.3401 26.8679
rtibia 1.55644
rfoot -12.2167 -22.972
rtoes 3.66955
lfemur 8.52754 -39.8133 -15.9832
ltibia -4.54443
lfoot -12.7863 45.07
ltoes 2.5534
61
root -0.387113 17.4747 7.347 5.5405 -0.0693569 -7.67195
lowerback 1.32206 1.47638 5.70403
upperback -8.74729 2.44528 0.829884
thorax -9.84298 0.779853 -2.53464
lowerneck -2.15468 -12.4706 -10.6455
upperneck 20.4225 -18.5855 10.1396
head 8.67205 -8.92867 3.32505
rclavicle 1.00386e-014 2.78299e-015
rhumerus -41.7739 -16.1506 -81.4948
rradius 22.8598
rwrist 40.8394
rhand 2.28905 -33.5805
rfingers 7.12502
rthumb 27.781 -61.5474
lclavicle 1.00386e-014 2.78299e-015
lhumerus -41.6237 3.27169 86.9965
lradius 21.8629
lwrist -22.0913
lhand -15.3305 -11.8733
lfingers 7.12502
lthumb 10.846 17.8266
rfemur 1.07184 24.3841 26.9004
rtibia 1.55451
rfoot -12.1991 -23.0332
rtoes 3.61209
lfemur 8.53096 -39.8145 -15.9718
ltibia -4.52849
lfoot -12.8771 45.0617
ltoes 2.68534
62
root -0.387345 17.4748 7.34761 5.53042 -0.0835787 -7.675
lowerback 1.36098 1.48469 5.71308
upperback -8.73899 2.45991 0.833401
thorax -9.85565 0.786144 -2.53845
lowerneck -2.24078 -12.4485 -10.6876
upperneck 20.4805 -18.5634 10.1959
head 8.71465 -8.9116 3.34542
rclavicle -1.09332e-015 1.35174e-014
rhumerus -41.7176 -16.0841 -81.5361
rradius 22.8209
rwrist 40.7287
rhand 2.25592 -33.5917
rfingers 7.12502
rthumb 27.7493 -61.5637
lclavicle -1.09332e-015 1.35174e-014
lhumerus -41.5801 3.30573 87.0001
lradius 21.8121
lwrist -22.1264
lhand -15.2697 -11.8583
lfingers 7.12502
lthumb 10.9046 17.8385
rfemur 1.08845 24.4437 26.9193
rtibia 1.56726
rfoot -12.2344 -23.0751
rtoes 3.64894
lfemur 8.52201 -39.7179 -15.9441
ltibia -4.53374
lfoot -12.9212 44.98
ltoes 2.79545
63
root -0.387796 17.4749 7.34825 5.54191 -0.0993955 -7.68721
lowerback 1.38753 1.49156 5.72772
upperback -8.74111 2.47166 0.826331
thorax -9.8723 0.789757 -2.55613
lowerneck -2.39311 -12.4317 -10.6161
upperneck 20.6068 -18.5318 10.1219
head 8.76684 -8.88809 3.30325
rclavicle 1.98785e-015 5.1684e-015
rhumerus -41.6806 -16.009 -81.6083
rradius 22.7843
rwrist 40.6479
rhand 2.22438 -33.5673
rfingers 7.12502
rthumb 27.7192 -61.5441
lclavicle 1.98785e-015 5.1684e-015
lhumerus -41.5555 3.39041 86.9049
lradius 21.83
lwrist -22.5191
lhand -14.8982 -11.6972
lfingers 7.12502
lthumb 11.2629 17.9804
rfemur 1.05898 24.4344 26.9208
rtibia 1.58915
rfoot -12.2686 -23.0224
rtoes 3.71206
lfemur 8.45496 -39.5722 -15.8635
ltibia -4.52378
lfoot -12.8678 44.8541
ltoes 2.69664
64
root -0.387763 17.4754 7.34905 5.58244 -0.108284 -7.67504
lowerback 1.3604 1.49585 5.72857
upperback -8.74233 2.47321 0.798908
thorax -9.85601 0.789621 -2.5851
lowerneck -2.47718 -12.3679 -10.417
upperneck 20.6142 -18.432 10.0359
head 8.74379 -8.83018 3.25517
rclavicle -3.18055e-015 3.97569e-015
rhumerus -41.6551 -16.0459 -81.6401
rradius 22.7616
rwrist 40.6815
rhand 2.21718 -33.4963
rfingers 7.12502
rthumb 27.7123 -61.4743
lclavicle -3.18055e-015 3.97569e-015
lhumerus -41.5707 3.31729 86.885
lradius 21.877
lwrist -22.4504
lhand -14.7357 -11.7268
lfingers 7.12502
lthumb 11.4197 17.9422
rfemur 0.997125 24.3896 26.8758
rtibia 1.58883
rfoot -12.1924 -22.9746
rtoes 3.54795
lfemur 8.39838 -39.6009 -15.8508
ltibia -4.50774
lfoot -12.7832 44.8867
ltoes 2.46114
